# xmcd
#
# Track frame offsets: 
#        150
#        17538
#        21042
#        38440
#        51146
#        66382
#        83432
#        94850
#        100748
#        109026
#        122761
#        124509
#        126410
#        129609
#        138887
#        149914
#        163097
#        180829
#        193107
#        205835
#        218477
#        230816
#        242321
#        253899
#
# Disc length: 3537 seconds
#
# Revision: 0
# Processed by: cddbd v1.5.2PL0 Copyright (c) Steve Scherf et al.
# Submitted via: ExactAudioCopy v1.0b1
#
DISCID=4c0dcf18
DTITLE=George Harrison  - Art Of Dying - Disc 1
DYEAR=1900
DGENRE=
TTITLE0=All Things Must Pass
TTITLE1=All Things Must Pass
TTITLE2=All Things Must Pass
TTITLE3=Apple Scruffs
TTITLE4=Apple Scruffs
TTITLE5=Apple Scruffs
TTITLE6=Apple Scruffs
TTITLE7=Apple Scruffs
TTITLE8=Apple Scruffs
TTITLE9=Apple Scruffs
TTITLE10=Apple Scruffs
TTITLE11=Apple Scruffs
TTITLE12=Apple Scruffs
TTITLE13=Apple Scruffs
TTITLE14=Apple Scruffs
TTITLE15=Apple Scruffs
TTITLE16=Apple Scruffs
TTITLE17=Apple Scruffs
TTITLE18=Apple Scruffs
TTITLE19=Apple Scruffs
TTITLE20=Apple Scruffs
TTITLE21=Apple Scruffs
TTITLE22=Apple Scruffs
TTITLE23=Apple Scruffs
EXTD=
EXTT0=
EXTT1=
EXTT2=
EXTT3=
EXTT4=
EXTT5=
EXTT6=
EXTT7=
EXTT8=
EXTT9=
EXTT10=
EXTT11=
EXTT12=
EXTT13=
EXTT14=
EXTT15=
EXTT16=
EXTT17=
EXTT18=
EXTT19=
EXTT20=
EXTT21=
EXTT22=
EXTT23=
PLAYORDER=
